<svg width="308" height="251" viewBox="0 0 308 251" fill="none" xmlns="http://www.w3.org/2000/svg">
<path fill-rule="evenodd" clip-rule="evenodd" d="M52.0981 24.1932C35.0883 24.1982 22.0003 39.2243 24.3297 56.0739L41.9722 183.693C43.1897 192.499 48.8933 199.705 56.5804 203.136C65.9038 209.92 79.0371 209.011 87.3273 200.516L157.353 128.761C169.044 116.781 164.459 96.7262 148.724 91.0165C140.307 87.9626 130.884 90.0619 124.56 96.3996L91.7001 129.329L91.5341 52.1703C91.5008 36.7043 78.9514 24.1855 63.4854 24.1899L52.0981 24.1932Z" fill="#2F1B25"/>
<path d="M235.066 45.3591C244.204 30.7006 264.294 27.7096 277.305 39.0705L284.332 45.2059C295.829 55.2447 297.186 72.6352 287.384 84.3352L175.469 217.925C171.445 222.729 165.441 225.423 159.177 225.235V225.235C143.402 224.762 134.081 207.36 142.43 193.968L235.066 45.3591Z" fill="#2F1B25"/>
<mask id="path-3-inside-1_560_108" fill="white">
<path fill-rule="evenodd" clip-rule="evenodd" d="M28.0366 15.8221C10.9915 15.8277 -2.10602 30.9136 0.281646 47.7906L17.7366 171.17C18.9677 179.872 24.5726 187.001 32.1356 190.463C41.3647 197.787 54.7198 197.446 63.5766 189.31L71.7733 181.781L133.68 116.436C145.223 104.252 140.489 84.2292 124.712 78.5045C116.199 75.4154 106.666 77.5389 100.269 83.9497L67.5279 116.761L67.3709 43.7987C67.3376 28.3322 54.7875 15.8132 39.3209 15.8183L28.0366 15.8221Z"/>
</mask>
<path d="M0.281646 47.7906L9.85552 46.4362L0.281646 47.7906ZM28.0366 15.8221L28.0398 25.4913L28.0366 15.8221ZM17.7366 171.17L8.16272 172.524L8.16272 172.524L17.7366 171.17ZM32.1356 190.463L38.1458 182.889L37.2272 182.16L36.1609 181.672L32.1356 190.463ZM63.5766 189.31L70.1176 196.431L70.1176 196.431L63.5766 189.31ZM71.7733 181.781L78.3143 188.902L78.5616 188.675L78.7926 188.431L71.7733 181.781ZM133.68 116.436L126.661 109.786L126.661 109.786L133.68 116.436ZM124.712 78.5045L121.414 87.5939L121.414 87.5939L124.712 78.5045ZM100.269 83.9497L107.114 90.7796L107.114 90.7796L100.269 83.9497ZM67.5279 116.761L57.8587 116.781L57.9088 140.089L74.3723 123.591L67.5279 116.761ZM67.3709 43.7987L77.0401 43.7779L77.0401 43.7779L67.3709 43.7987ZM39.3209 15.8183L39.3177 6.14909L39.3209 15.8183ZM9.85552 46.4362C8.29119 35.3788 16.8723 25.495 28.0398 25.4913L28.0334 6.15284C5.11066 6.16046 -12.5032 26.4484 -9.29223 49.1451L9.85552 46.4362ZM27.3105 169.815L9.85552 46.4362L-9.29223 49.1451L8.16272 172.524L27.3105 169.815ZM36.1609 181.672C31.4993 179.537 28.0656 175.153 27.3105 169.815L8.16272 172.524C9.86975 184.59 17.6459 194.464 28.1104 199.255L36.1609 181.672ZM57.0356 182.189C51.7161 187.075 43.6859 187.285 38.1458 182.889L26.1255 198.038C39.0436 208.288 57.7235 207.816 70.1176 196.431L57.0356 182.189ZM65.2323 174.66L57.0356 182.189L70.1176 196.431L78.3143 188.902L65.2323 174.66ZM126.661 109.786L64.7539 175.131L78.7926 188.431L140.7 123.086L126.661 109.786ZM121.414 87.5939C130.644 90.9431 133.414 102.657 126.661 109.786L140.7 123.086C157.032 105.846 150.334 77.5153 128.01 69.4152L121.414 87.5939ZM107.114 90.7796C110.856 87.0289 116.433 85.7866 121.414 87.5939L128.01 69.4152C115.964 65.0442 102.476 68.0488 93.4248 77.1198L107.114 90.7796ZM74.3723 123.591L107.114 90.7796L93.4248 77.1198L60.6835 109.931L74.3723 123.591ZM57.7017 43.8195L57.8587 116.781L77.1971 116.74L77.0401 43.7779L57.7017 43.8195ZM39.3241 25.4875C49.4574 25.4841 57.6799 33.6862 57.7017 43.8195L77.0401 43.7779C76.9953 22.9781 60.1176 6.14217 39.3177 6.14909L39.3241 25.4875ZM28.0398 25.4913L39.3241 25.4875L39.3177 6.14909L28.0334 6.15284L28.0398 25.4913Z" fill="#FF8BB4" mask="url(#path-3-inside-1_560_108)"/>
<path d="M265.585 63.4277L160.838 198.168C156.166 204.178 148.483 207.007 141.029 205.462C127.409 202.639 120.781 187.099 128.17 175.315L219.459 29.718C226.324 18.7698 240.809 15.5378 251.677 22.5297L256.891 25.8846C259.11 27.3125 261.07 29.1086 262.685 31.1955L265.615 34.98C272.1 43.3576 272.088 55.0636 265.585 63.4277Z" stroke="#FF8BB4" stroke-width="9.66921"/>
</svg>
